<svg width="345" height="250" xmlns="http://www.w3.org/2000/svg" xmlns:xlink="http://www.w3.org/1999/xlink" xml:space="preserve" overflow="hidden"><g transform="translate(177 -68)"><g><g><g><path d="M211.017 60.4969C223.942 60.5356 234.635 70.5661 235.499 83.4625L235.836 88.5926 240.801 89.9226 241.421 90.0947C253.565 93.731 260.471 106.514 256.855 118.664L255.127 124.471 260.562 127.146C261.279 127.504 262.014 127.899 262.713 128.322 276.529 136.66 280.99 154.608 272.686 168.445L269.746 173.328 273.84 177.293C286.088 189.177 286.382 208.739 274.498 220.986 271.827 223.738 268.667 225.97 265.179 227.565L260.992 229.48 260.992 234.405C261.04 249.694 248.684 262.128 233.395 262.175 231.356 262.181 229.323 261.963 227.332 261.522L220.922 260.117 218.954 266.366C216.202 275.139 206.858 280.019 198.085 277.267 191.144 275.089 186.421 268.657 186.42 261.383L186.42 85.1008C186.428 72.16 196.454 61.4344 209.364 60.5543 209.913 60.5149 210.461 60.4969 211.003 60.4969M211.003 53.3269C210.305 53.3269 209.602 53.3509 208.895 53.3986 192.2 54.5024 179.229 68.3768 179.25 85.108L179.25 261.383C179.252 274.537 189.915 285.2 203.069 285.201 213.476 285.201 222.679 278.445 225.798 268.517 244.624 272.639 263.229 260.719 267.351 241.892 267.891 239.426 268.161 236.908 268.158 234.384L268.158 234.068C287.276 225.323 295.684 202.736 286.939 183.618 284.971 179.316 282.219 175.42 278.824 172.127 289.19 154.901 283.632 132.533 266.409 122.163 265.534 121.639 264.638 121.148 263.724 120.696 268.479 104.759 259.415 87.9842 243.478 83.2287 243.475 83.2276 243.472 83.2269 243.468 83.2259 243.196 83.1434 242.923 83.0681 242.651 82.9964 241.56 66.3201 227.725 53.3459 211.013 53.3269Z" fill="#88BACA" fill-rule="nonzero" fill-opacity="0.5" transform="matrix(-1.00001 0 0 1 168.003 23.7945)"/><path d="M133.161 60.5113C146.734 60.5331 157.728 71.5355 157.74 85.108L157.74 261.368C157.727 270.561 150.265 278.003 141.072 277.99 133.816 277.98 127.403 273.271 125.221 266.351L123.249 260.106 116.85 261.508C114.889 261.938 112.888 262.154 110.881 262.153 95.5697 262.146 83.1642 249.727 83.1721 234.416 83.1721 234.405 83.1721 234.395 83.1721 234.384L83.1721 229.462 78.9812 227.547C63.4646 220.463 56.6287 202.142 63.7127 186.625 65.3109 183.124 67.5493 179.953 70.3127 177.275L74.4032 173.31 71.4635 168.431C71.0404 167.714 70.6425 166.997 70.2804 166.28 63.1627 151.789 69.1235 134.272 83.6023 127.131L89.03 124.457 87.3056 118.664C87.2446 118.456 87.1837 118.248 87.1263 118.033 83.8672 105.79 91.1293 93.2187 103.363 89.9262L108.328 88.5998 108.665 83.4732C109.547 70.5833 120.241 60.5668 133.161 60.5292M133.161 53.3592C116.452 53.3685 102.612 66.3337 101.513 83.0072 85.446 87.3031 75.9035 103.811 80.1998 119.878 80.2008 119.883 80.2023 119.888 80.2037 119.893 80.2754 120.169 80.3543 120.442 80.4367 120.714 62.407 129.599 54.9893 151.415 63.8668 169.449 64.3185 170.371 64.8097 171.27 65.3403 172.145 50.2528 186.777 49.8832 210.868 64.515 225.956 67.8068 229.35 71.7022 232.101 76.0021 234.068L76.0021 234.384C75.9802 253.657 91.5857 269.3 110.859 269.323L110.902 269.323C113.413 269.323 115.917 269.051 118.37 268.513 122.303 281.064 135.666 288.05 148.217 284.117 158.153 281.003 164.914 271.795 164.91 261.383L164.91 85.108C164.914 67.5691 150.7 53.3474 133.161 53.3413Z" fill="#88BACA" fill-rule="nonzero" fill-opacity="0.5" transform="matrix(-1.00001 0 0 1 168.003 23.7945)"/><path d="M68.5704 77.6619C67.63 77.658 66.7287 77.2844 66.0609 76.6223L49.0393 59.7333C47.6099 58.3631 47.5622 56.0938 48.9324 54.6645 50.3026 53.2351 52.5719 53.1875 54.0013 54.5577 54.0303 54.5853 54.059 54.6139 54.0869 54.6426L71.1085 71.5316C72.5142 72.9258 72.5235 75.1958 71.1293 76.6015 70.46 77.2765 69.5498 77.658 68.599 77.6619Z" fill="#88BACA" fill-rule="nonzero" fill-opacity="0.5" transform="matrix(-1.00001 0 0 1 168.003 23.7945)"/><path d="M45.3646 123.525C44.8842 123.524 44.4085 123.426 43.9665 123.238L19.5239 112.863C17.712 112.065 16.8903 109.949 17.6886 108.137 18.4713 106.36 20.5262 105.53 22.3238 106.263L46.7664 116.638C48.5901 117.409 49.4429 119.513 48.6714 121.337 48.1097 122.665 46.8069 123.527 45.3646 123.525Z" fill="#88BACA" fill-rule="nonzero" fill-opacity="0.5" transform="matrix(-1.00001 0 0 1 168.003 23.7945)"/><path d="M34.2009 174.038 8.77609 174.038C6.79616 174.038 5.19108 172.433 5.19108 170.453 5.19108 168.473 6.79616 166.868 8.77609 166.868L34.2009 166.868C36.1809 166.868 37.7859 168.473 37.7859 170.453 37.7859 172.433 36.1809 174.038 34.2009 174.038Z" fill="#88BACA" fill-rule="nonzero" fill-opacity="0.5" transform="matrix(-1.00001 0 0 1 168.003 23.7945)"/><path d="M15.498 236.843C13.518 236.845 11.9117 235.241 11.9101 233.261 11.9089 231.849 12.7368 230.568 14.0245 229.989L34.8606 220.607C36.6524 219.765 38.7879 220.535 39.6301 222.326 40.4722 224.119 39.7021 226.254 37.91 227.096 37.8763 227.112 37.8419 227.127 37.8074 227.142L16.9714 236.524C16.5084 236.734 16.0062 236.843 15.498 236.843Z" fill="#88BACA" fill-rule="nonzero" fill-opacity="0.5" transform="matrix(-1.00001 0 0 1 168.003 23.7945)"/><path d="M50.3084 288.317C48.3284 288.315 46.7248 286.708 46.7262 284.728 46.7273 283.751 47.1277 282.816 47.8347 282.14L63.8668 266.839C65.2994 265.468 67.5719 265.518 68.9432 266.95 70.3145 268.383 70.2646 270.655 68.8321 272.026L52.7999 287.327C52.1285 287.967 51.2354 288.321 50.3084 288.317Z" fill="#88BACA" fill-rule="nonzero" fill-opacity="0.5" transform="matrix(-1.00001 0 0 1 168.003 23.7945)"/><path d="M122.478 168.965 118.535 164.788C117.914 164.756 117.294 164.691 116.678 164.605L112.017 167.9 103.607 163.372 103.818 157.593C103.409 157.134 103.022 156.656 102.657 156.159L97.0209 155.206 94.2641 146.089 98.437 142.145C98.4693 141.529 98.5302 140.919 98.6163 140.31L95.2607 135.606 99.8352 127.182 105.571 127.354C106.041 126.945 106.528 126.551 107.034 126.181L108.009 120.56 117.111 117.803 121.055 121.947C121.679 121.983 122.299 122.044 122.919 122.134L127.601 118.85 135.994 123.364 135.818 129.1C136.231 129.563 136.622 130.041 136.99 130.534L142.629 131.491 145.386 140.615 141.203 144.558C141.163 145.2 141.095 145.838 141.002 146.472L144.289 151.133 139.736 159.533 134.025 159.364C133.547 159.783 133.062 160.18 132.57 160.558L131.57 166.208ZM121.643 157.615 124.654 160.812 125.282 160.626 126.034 156.288 127.379 155.439C128.348 154.825 129.238 154.094 130.028 153.262L131.132 152.105 135.52 152.237 135.836 151.653 133.298 148.068 133.656 146.494C133.917 145.365 134.038 144.207 134.015 143.049L133.99 141.464 137.18 138.464 136.994 137.843 132.656 137.126 131.803 135.768C131.195 134.801 130.473 133.911 129.652 133.118L128.501 132.014 128.637 127.605 128.046 127.286 124.461 129.795 122.915 129.437C121.798 129.179 120.652 129.065 119.506 129.1L117.922 129.132 114.917 125.959 114.286 126.149 113.53 130.512 112.153 131.362C111.181 131.96 110.287 132.677 109.49 133.495L108.389 134.624 104.008 134.495 103.678 135.101 106.234 138.686 105.876 140.242C105.629 141.362 105.517 142.508 105.543 143.655L105.578 145.25 102.377 148.265 102.563 148.882 106.894 149.599 107.751 150.957C108.357 151.925 109.079 152.815 109.902 153.607L111.06 154.722 110.931 159.174 111.508 159.486 115.093 156.959 116.645 157.317C117.759 157.579 118.903 157.693 120.047 157.658Z" fill="#88BACA" fill-rule="nonzero" fill-opacity="0.5" transform="matrix(-1.00001 0 0 1 168.003 23.7945)"/><path d="M119.811 136.818C119.171 136.818 118.534 136.912 117.922 137.098L117.922 137.098C114.455 138.144 112.492 141.803 113.538 145.269 114.585 148.736 118.243 150.698 121.711 149.652 125.177 148.606 127.14 144.947 126.093 141.481 125.258 138.712 122.707 136.817 119.814 136.818Z" fill="#88BACA" fill-rule="nonzero" fill-opacity="0.5" transform="matrix(-1.00001 0 0 1 168.003 23.7945)"/><path d="M112.569 221.89 108.626 217.714C108.005 217.678 107.385 217.617 106.769 217.527L102.108 220.825 93.7012 216.294 93.9127 210.519C93.5005 210.06 93.1133 209.579 92.744 209.085L87.112 208.131 84.3551 199.011 88.5281 195.067C88.5603 194.451 88.6213 193.838 88.7073 193.228L85.3231 188.542 89.9011 180.121 95.6371 180.293C96.1032 179.881 96.5943 179.49 97.0962 179.121L98.0749 173.496 107.174 170.739 111.099 174.884C111.723 174.919 112.343 174.984 112.963 175.07L117.645 171.786 126.034 176.303 125.862 182.039C126.276 182.503 126.666 182.981 127.035 183.473L132.674 184.427 135.431 193.551 131.247 197.494C131.206 198.137 131.138 198.775 131.043 199.409L134.33 204.069 129.813 212.469 124.102 212.297C123.636 212.716 123.148 213.114 122.647 213.491L121.664 219.137ZM111.73 210.536 114.742 213.738 115.365 213.548 116.118 209.21 117.463 208.36C118.433 207.745 119.325 207.015 120.119 206.184L121.223 205.03 125.608 205.163 125.923 204.575 123.385 200.99 123.744 199.416C124.005 198.287 124.125 197.129 124.102 195.971L124.077 194.39 127.268 191.385 127.081 190.765 122.743 190.048 121.89 188.675C121.285 187.708 120.563 186.819 119.739 186.029L118.592 184.925 118.725 180.516 118.133 180.197 114.548 182.706 113.003 182.348C111.887 182.087 110.742 181.973 109.597 182.007L108.009 182.039 105.008 178.867 104.374 179.06 103.617 183.416 102.248 184.266C101.271 184.871 100.372 185.593 99.5699 186.417L98.4693 187.539 94.0992 187.41 93.7658 188.016 96.3219 191.601 95.9634 193.156C95.7171 194.277 95.6038 195.422 95.6264 196.569L95.6658 198.165 92.4644 201.183 92.6508 201.8 96.9815 202.517 97.8383 203.876C98.4449 204.842 99.1673 205.73 99.9893 206.521L101.147 207.636 100.986 212.074 101.56 212.383 105.145 209.873 106.697 210.232C107.811 210.496 108.955 210.611 110.099 210.572Z" fill="#88BACA" fill-rule="nonzero" fill-opacity="0.5" transform="matrix(-1.00001 0 0 1 168.003 23.7945)"/><path d="M109.888 189.74C109.248 189.742 108.611 189.836 107.998 190.02L107.998 190.02C104.539 191.071 102.588 194.728 103.64 198.187 104.692 201.646 108.349 203.597 111.808 202.546 115.266 201.494 117.218 197.837 116.166 194.378 115.326 191.617 112.777 189.731 109.891 189.736Z" fill="#88BACA" fill-rule="nonzero" fill-opacity="0.5" transform="matrix(-1.00001 0 0 1 168.003 23.7945)"/></g></g></g></g></svg>